<?xml version="1.0" encoding="UTF-8"?>
<svg width="256" height="256" viewBox="0 0 256 256" xmlns="http://www.w3.org/2000/svg">
  <defs>
    <linearGradient id="bg" x1="0%" y1="0%" x2="100%" y2="100%">
      <stop offset="0%" style="stop-color:#0a0a0a"/>
      <stop offset="100%" style="stop-color:#1a1a2e"/>
    </linearGradient>
    <linearGradient id="glow" x1="0%" y1="0%" x2="100%" y2="100%">
      <stop offset="0%" style="stop-color:#00ff88"/>
      <stop offset="100%" style="stop-color:#00aaff"/>
    </linearGradient>
  </defs>
  <rect width="256" height="256" rx="40" fill="url(#bg)"/>
  <circle cx="128" cy="100" r="55" fill="none" stroke="url(#glow)" stroke-width="4"/>
  <circle cx="128" cy="100" r="35" fill="none" stroke="url(#glow)" stroke-width="2" opacity="0.6"/>
  <circle cx="128" cy="100" r="8" fill="#00ff88"/>
  <polygon points="128,60 138,80 118,80" fill="#00ff88" opacity="0.8"/>
  <line x1="128" y1="55" x2="128" y2="45" stroke="#00ff88" stroke-width="3"/>
  <line x1="163" y1="70" x2="170" y2="63" stroke="#00ff88" stroke-width="3"/>
  <line x1="93" y1="70" x2="86" y2="63" stroke="#00ff88" stroke-width="3"/>
  <line x1="173" y1="100" x2="183" y2="100" stroke="#00ff88" stroke-width="3"/>
  <line x1="83" y1="100" x2="73" y2="100" stroke="#00ff88" stroke-width="3"/>
  <polygon points="128,165 90,210 166,210" fill="none" stroke="url(#glow)" stroke-width="3"/>
  <line x1="128" y1="155" x2="128" y2="180" stroke="#00ff88" stroke-width="2"/>
  <text x="128" y="240" text-anchor="middle" font-family="monospace" font-size="22" font-weight="bold" fill="#00ff88">AEGIS</text>
</svg>